<?xml version="1.0" standalone="no"?>
<!DOCTYPE svg PUBLIC "-//W3C//DTD SVG 20010904//EN"
 "http://www.w3.org/TR/2001/REC-SVG-20010904/DTD/svg10.dtd">
<svg version="1.0" xmlns="http://www.w3.org/2000/svg"
 width="1280.000000pt" height="817.000000pt" viewBox="0 0 1280.000000 817.000000"
 preserveAspectRatio="xMidYMid meet">
<metadata>
Created by potrace 1.15, written by Peter Selinger 2001-2017
</metadata>
<g transform="translate(0.000000,817.000000) scale(0.100000,-0.100000)"
fill="#000" stroke="none">
<path d="M11019 8154 c-244 -22 -536 -77 -610 -114 -51 -26 -104 -89 -123
-146 -29 -89 -36 -185 -36 -514 0 -433 -21 -659 -85 -909 -44 -174 -136 -424
-171 -462 -11 -13 -23 -15 -49 -9 -31 7 -39 4 -70 -26 -20 -19 -40 -34 -45
-34 -4 0 -48 28 -96 63 -117 84 -213 139 -359 206 -166 77 -161 74 -148 104
12 26 171 145 379 285 67 44 144 104 171 131 94 95 139 216 131 345 -7 94 -39
174 -94 235 -132 147 -337 140 -493 -16 -135 -136 -236 -393 -292 -742 -31
-201 -37 -210 -111 -191 -26 8 -42 19 -48 35 -11 30 7 173 70 537 63 362 72
450 60 561 -21 178 -87 274 -205 296 -168 32 -364 -106 -475 -333 -59 -119
-73 -222 -49 -366 22 -141 106 -340 221 -527 66 -107 70 -117 54 -138 -10 -14
-43 -20 -180 -31 -186 -15 -246 -24 -389 -60 -374 -94 -704 -280 -969 -546
-107 -107 -122 -128 -93 -128 23 0 18 -19 -7 -29 -13 -5 -53 -17 -90 -26 -406
-102 -643 -702 -487 -1230 32 -105 63 -170 137 -279 42 -63 62 -101 54 -104
-20 -6 -14 -44 28 -165 94 -273 231 -500 430 -710 182 -194 455 -378 708 -478
96 -38 122 -54 122 -78 0 -14 -12 -22 -47 -30 -127 -28 -464 -84 -612 -101
-77 -9 -98 -8 -115 3 -12 8 -46 58 -75 111 -83 149 -69 140 -192 130 -101 -9
-104 -10 -107 -34 -2 -14 6 -63 17 -109 11 -46 18 -88 14 -93 -3 -6 -64 -7
-154 -3 l-149 8 6 -109 c4 -60 8 -110 9 -112 2 -2 47 -10 100 -18 54 -8 104
-18 113 -23 11 -6 -10 -21 -84 -57 -82 -41 -99 -53 -102 -74 -4 -38 36 -193
53 -206 8 -6 43 -17 78 -24 34 -6 73 -18 87 -25 24 -13 23 -15 -59 -52 l-84
-38 6 -94 c3 -51 10 -98 16 -104 13 -13 289 11 617 53 126 16 232 30 237 30 4
0 17 10 29 22 l21 21 24 -29 23 -29 145 3 c108 3 145 1 145 -8 0 -7 -32 -45
-71 -86 -84 -86 -84 -85 -4 -197 l56 -77 50 0 c48 0 49 -1 49 -31 0 -17 7 -38
16 -47 15 -15 15 -17 -4 -25 -15 -7 -23 -22 -28 -56 -34 -243 -99 -551 -160
-760 -19 -64 -34 -119 -34 -123 0 -5 227 -8 505 -8 l505 0 0 24 c0 42 41 159
75 216 45 75 80 104 145 125 30 9 65 24 77 31 21 13 28 12 72 -10 93 -48 171
-163 212 -313 12 -43 26 -84 31 -91 14 -17 957 -6 975 12 12 12 35 141 54 306
18 158 15 596 -5 765 -41 338 -107 599 -227 907 -55 140 -178 387 -243 488
-24 36 -57 89 -75 118 -19 29 -42 57 -52 63 -11 5 -19 14 -19 19 0 4 42 39 93
76 247 181 458 439 597 725 63 132 130 319 130 364 0 18 6 28 20 32 13 3 21
16 24 37 44 292 40 424 -20 741 -46 242 -141 474 -285 696 -38 58 -69 113 -69
121 0 9 20 34 45 57 28 26 45 50 45 64 0 34 33 61 132 107 91 43 119 48 137
27 6 -8 27 -92 46 -188 83 -403 187 -776 370 -1329 150 -450 226 -650 255
-671 72 -53 544 -74 788 -35 138 21 322 66 448 108 113 37 135 58 211 205 103
198 151 382 160 618 5 137 -6 294 -24 342 -4 11 -14 -3 -33 -44 -70 -153 -208
-233 -405 -233 l-93 0 -36 70 c-63 119 -87 236 -93 445 -9 294 17 492 157
1200 134 676 167 925 158 1164 -7 176 -55 290 -166 398 -206 201 -671 289
-1243 237z"/>
<path d="M1573 8031 c-67 -25 -100 -48 -157 -112 -61 -68 -104 -161 -123 -266
-14 -75 -14 -100 -4 -177 27 -195 134 -548 245 -814 77 -182 75 -169 24 -192
-61 -28 -83 -25 -111 13 -50 68 -181 391 -298 735 -114 334 -197 467 -339 539
-75 38 -172 39 -245 3 -149 -72 -249 -257 -248 -460 0 -116 20 -196 73 -299
99 -191 290 -374 570 -546 182 -112 170 -102 170 -139 0 -32 -5 -38 -77 -81
-246 -148 -517 -404 -668 -630 -160 -239 -272 -508 -329 -790 -16 -82 -48
-381 -50 -470 -1 -81 22 -240 55 -369 42 -170 48 -186 74 -196 14 -5 25 -20
29 -41 16 -81 151 -326 276 -500 109 -154 335 -375 499 -491 113 -79 108 -74
82 -102 -63 -67 -223 -658 -307 -1133 -38 -220 -90 -628 -104 -833 -7 -85 -15
-195 -20 -245 -5 -49 -8 -166 -7 -260 l2 -170 664 0 665 0 12 87 c18 121 67
211 144 262 36 24 49 27 108 24 l67 -3 5 -129 5 -129 30 30 c17 16 43 46 58
67 24 31 34 37 60 34 27 -2 36 -11 54 -48 12 -25 28 -74 35 -110 l13 -65 538
-3 c341 -1 537 1 537 8 0 5 -32 98 -71 207 -163 460 -278 915 -296 1174 l-6
87 52 11 c29 6 65 18 81 26 77 40 287 104 470 144 230 50 615 107 651 96 41
-13 42 -67 10 -368 -32 -294 -36 -347 -23 -347 4 1 36 49 71 108 119 196 269
427 296 452 l26 25 41 -24 c50 -28 44 -34 123 121 55 107 65 141 43 154 -7 5
-5 11 7 21 25 17 50 17 65 -2 30 -36 46 -18 145 160 81 146 95 180 90 204 -6
28 -4 30 26 33 31 3 38 12 106 128 39 69 72 131 72 137 1 7 -12 19 -29 28
l-30 15 76 105 c41 57 79 107 85 111 21 13 36 -19 42 -87 9 -104 40 -143 96
-120 52 22 101 151 101 269 0 50 3 56 64 128 184 215 223 458 120 744 -35 99
-55 138 -121 239 -47 69 -58 95 -69 157 -7 41 -24 94 -38 118 -37 63 -122 137
-214 184 -109 57 -138 55 -89 -5 23 -26 57 -111 57 -139 0 -8 -14 -29 -30 -48
-42 -47 -90 -56 -276 -49 -121 5 -166 2 -230 -11 -102 -23 -225 -82 -293 -143
-94 -83 -172 -225 -206 -376 -10 -48 -7 -201 6 -253 13 -52 49 -131 81 -177
16 -22 18 -33 9 -60 -13 -40 -31 -207 -31 -285 l0 -60 -82 -79 c-46 -44 -106
-100 -134 -125 l-51 -45 -229 -7 c-273 -9 -479 -27 -496 -44 -22 -22 -35 -13
-72 49 -40 67 -42 74 -22 66 8 -3 16 -3 18 1 2 4 26 22 53 41 132 91 210 155
323 266 231 224 383 455 497 750 59 152 83 250 68 274 -10 16 -6 24 29 57 186
180 292 511 260 811 -16 152 -44 251 -109 383 -50 100 -68 126 -142 201 -98
99 -182 145 -313 173 -52 12 -75 21 -72 30 2 6 -32 56 -76 109 -280 335 -717
608 -1162 726 -320 86 -608 100 -1038 53 l-65 -8 51 206 c132 524 145 886 40
1116 -68 148 -208 215 -343 165z"/>
</g>
</svg>
